<svg xmlns="http://www.w3.org/2000/svg" width="200" height="49" viewBox="0 0 200 49" fill="none"><path d="M70.0008 33.7491C68.6188 33.7491 67.5339 34.8074 67.5339 36.161C67.5339 37.5145 68.6188 38.5812 70.0008 38.5812C70.6904 38.5812 71.4025 38.2665 71.9239 37.7679L72.6135 38.5338C71.9127 39.2189 70.9175 39.6618 69.9391 39.6618C67.918 39.6618 66.3481 38.1439 66.3481 36.1721C66.3481 34.2003 67.9376 32.7214 69.9784 32.7214C70.9539 32.7214 71.9323 33.1225 72.6023 33.7798L71.9211 34.6236C71.4193 34.0833 70.6988 33.7519 69.998 33.7519" fill="#101841"></path><path d="M85.3374 36.1805C85.3374 38.1411 83.7396 39.659 81.6791 39.659C79.6187 39.659 78.0181 38.1383 78.0181 36.1805C78.0181 34.2226 79.6159 32.7214 81.6791 32.7214C83.7424 32.7214 85.3374 34.2226 85.3374 36.1805ZM79.2011 36.1805C79.2011 37.5423 80.3364 38.6202 81.6876 38.6202C83.0387 38.6202 84.1432 37.5423 84.1432 36.1805C84.1432 34.8186 83.0387 33.7575 81.6876 33.7575C80.3364 33.7575 79.2011 34.8158 79.2011 36.1805Z" fill="#101841"></path><path d="M106.449 33.7881C105.768 33.7881 105.325 34.0443 105.325 34.5039C105.325 36.0022 109.053 35.2001 109.045 37.6677C109.045 38.8931 107.96 39.6478 106.44 39.6478C105.356 39.6478 104.33 39.2078 103.62 38.5589L104.122 37.5591C104.834 38.2052 105.72 38.5589 106.46 38.5589C107.267 38.5589 107.752 38.2553 107.752 37.7262C107.752 36.1972 104.024 37.0494 104.024 34.6097C104.024 33.4344 105.039 32.6992 106.539 32.6992C107.436 32.6992 108.313 32.9832 108.955 33.4038L108.473 34.4231C107.724 33.9719 106.973 33.7853 106.452 33.7853" fill="#101841"></path><path d="M120.059 32.7493V33.7881H117.869V39.6088H116.706V33.7881H114.525V32.7493H120.059Z" fill="#101841"></path><path d="M130.375 39.6088L129.113 37.5312C129.015 37.5423 128.906 37.5423 128.797 37.5423H127.159V39.6116H125.996V32.7493H128.799C130.565 32.7493 131.58 33.6015 131.58 35.0915C131.58 36.1888 131.067 36.9631 130.151 37.3168L131.701 39.6116H130.378L130.375 39.6088ZM128.797 36.5035C129.862 36.5035 130.473 36.0523 130.473 35.1221C130.473 34.1919 129.862 33.7881 128.797 33.7881H127.159V36.5035H128.797Z" fill="#101841"></path><path d="M140.946 38.6201C142.07 38.6201 142.771 37.935 142.771 36.7681V32.7493H143.934V36.7681C143.934 38.5617 142.799 39.659 140.935 39.659C139.071 39.659 137.927 38.5617 137.927 36.7681V32.7493H139.09V36.7681C139.09 37.9239 139.811 38.6201 140.946 38.6201Z" fill="#101841"></path><path d="M153.617 33.7491C152.235 33.7491 151.15 34.8074 151.15 36.161C151.15 37.5145 152.235 38.5812 153.617 38.5812C154.309 38.5812 155.019 38.2665 155.54 37.7679L156.23 38.5338C155.532 39.2189 154.534 39.6618 153.555 39.6618C151.531 39.6618 149.964 38.1439 149.964 36.1721C149.964 34.2003 151.554 32.7214 153.595 32.7214C154.57 32.7214 155.548 33.1225 156.218 33.7798L155.537 34.6236C155.033 34.0833 154.315 33.7519 153.614 33.7519" fill="#101841"></path><path d="M167.07 32.7493V33.7881H164.878V39.6088H163.714V33.7881H161.533V32.7493H167.07Z" fill="#101841"></path><path d="M174.168 39.6088H173.002V32.7493H174.168V39.6088Z" fill="#101841"></path><path d="M187.666 36.1805C187.666 38.1411 186.068 39.659 184.007 39.659C181.947 39.659 180.346 38.1383 180.346 36.1805C180.346 34.2226 181.944 32.7214 184.007 32.7214C186.07 32.7214 187.666 34.2226 187.666 36.1805ZM181.529 36.1805C181.529 37.5423 182.664 38.6202 184.016 38.6202C185.367 38.6202 186.471 37.5423 186.471 36.1805C186.471 34.8186 185.367 33.7575 184.016 33.7575C182.664 33.7575 181.529 34.8158 181.529 36.1805Z" fill="#101841"></path><path d="M194.99 32.7493L198.691 37.6788V32.7493H199.837V39.6088H198.691L195.013 34.6905V39.6088H193.847V32.7493H194.99Z" fill="#101841"></path><path d="M101.159 18.2058C101.159 23.1242 97.2542 27.1486 92.085 27.1486C86.9157 27.1486 83.0107 23.1242 83.0107 18.2058C83.0107 13.2874 86.9185 9.28812 92.085 9.28812C97.2514 9.28812 101.159 13.2902 101.159 18.2058ZM97.2037 18.2058C97.2037 15.457 95.0676 12.9504 92.085 12.9504C89.1023 12.9504 86.9662 15.457 86.9662 18.2058C86.9662 20.9547 89.1023 23.4835 92.085 23.4835C95.0676 23.4835 97.2037 20.9519 97.2037 18.2058Z" fill="#101841"></path><path d="M120.081 16.4206V26.689H116.129V20.1331H108.097V26.689H104.117V9.83955H108.097V16.4206H120.081Z" fill="#101841"></path><path d="M120.081 9.83955V14.084H116.129V9.83955H120.081Z" fill="#101841"></path><path d="M128.379 23.1688H138.471V26.689H124.398V9.83955H128.379V16.493H137.417V20.0133H128.379V23.1688Z" fill="#101841"></path><path d="M138.471 9.83955V13.3598H130.731V9.83955H138.471Z" fill="#101841"></path><path d="M156.132 21.8932C156.132 25.6279 152.734 27.0762 148.854 27.0762C146.211 27.0762 143.612 26.4969 141.285 25.2436L142.813 21.8932C144.658 22.7621 146.937 23.411 148.854 23.411C151.33 23.411 151.913 22.5672 151.913 21.8932C151.913 18.9299 141.65 20.6149 141.65 14.2288C141.65 11.1931 144.658 9.50534 148.905 9.50534C151.259 9.50534 153.611 9.96209 155.697 11.0483L154.265 14.2288C152.518 13.4322 150.505 13.0006 148.902 13.0006C147.298 13.0006 145.869 13.2651 145.869 14.3987C145.869 16.8328 156.132 15.9165 156.132 21.896V21.8932Z" fill="#101841"></path><path d="M159.148 26.689V9.83955H163.126V26.689H159.148Z" fill="#101841"></path><path d="M165.696 9.83955H169.747L176.808 26.689H172.78L165.696 9.83955Z" fill="#101841"></path><path d="M176.178 17.7463L179.452 9.83955H183.48L178.216 22.6145L176.178 17.7463Z" fill="#101841"></path><path d="M189.908 23.1688H200V26.689H185.927V9.83955H189.908V16.493H198.949V20.0133H189.908V23.1688Z" fill="#101841"></path><path d="M200 9.83955V13.3598H192.26V9.83955H200Z" fill="#101841"></path><path d="M78.9206 22.116L81.3987 24.6031C79.77 26.1961 77.5358 27.1625 74.9848 27.1625C69.81 27.1625 65.8994 23.1326 65.8994 18.2086C65.8994 13.2846 69.8128 9.27698 74.9848 9.27698C77.5358 9.27698 79.77 10.2434 81.3987 11.8364L78.9206 14.3235C77.9984 13.4796 76.7593 12.9477 75.254 12.9477C71.9741 12.9477 69.8604 15.457 69.8604 18.2086C69.8604 20.9602 71.9741 23.4946 75.254 23.4946C76.7593 23.4946 77.9984 22.9654 78.9206 22.1188V22.116Z" fill="#101841"></path><path d="M97.2429 32.8635H96.0992V37.7958L92.3989 32.8635H91.2551V39.7258H92.4185V34.8047L96.0992 39.7258H97.2429V32.8635Z" fill="#101841"></path><path d="M56.9514 24.5L42.7136 0H30.5025V13.8806H34.6485L40.8214 24.5L34.6485 35.1194H30.5025V49H42.7136L56.9514 24.5ZM26.3901 0H14.2379L0 24.5L14.2379 49H26.3901V35.1194H22.3001L16.1329 24.5L22.3029 13.8806H26.3901V0Z" fill="#FDB525"></path></svg>