<svg width="124" height="24" viewBox="0 0 124 24" fill="none" xmlns="http://www.w3.org/2000/svg">
<g clip-path="url(#clip0)">
<path d="M10.3652 11.4371V11.5007C12.5962 12.1432 13.6469 14.0769 13.6469 16.9139C13.6469 21.1694 12.2654 23.6756 7.53745 23.6756H1V0.324463H6.81107C11.1175 0.324463 12.888 2.80525 12.888 6.47554C12.888 9.14715 12.1357 10.6929 10.3652 11.4371ZM4.97565 10.1458H6.97969C8.65297 10.1458 9.11344 9.17896 9.11344 6.9208C9.11344 4.63085 8.55569 3.95659 6.97969 3.95659H4.97565V10.1458ZM4.97565 20.1326H7.37531C8.98373 20.1326 9.61283 19.3947 9.61283 16.6849C9.61283 13.9115 8.98373 13.3327 7.40774 13.3327H4.97565V20.1326Z" fill="black"/>
<path d="M23.6088 4.41458H23.6737L25.6453 15.2728H21.6372L23.6088 4.41458ZM21.3064 0.324463L15.9883 23.682H20.0612L21.047 18.4278H26.242L27.2278 23.682H31.398L26.0798 0.324463H21.3064Z" fill="black"/>
<path d="M40.7177 14.1087H39.0768V23.6756H35.0039V0.324463H41.243C45.3808 0.324463 47.1903 2.70983 47.1903 6.99078C47.1903 10.343 46.2045 12.3086 44.2977 13.11L48.1761 23.6756H43.8697L40.7177 14.1087ZM39.0768 10.8519H41.016C42.6569 10.8519 43.1498 9.88502 43.1498 7.30883C43.1498 4.56724 42.5596 3.89298 41.016 3.89298H39.0768V10.8519Z" fill="black"/>
<path d="M61.199 0.324463L56.3413 11.3417H56.2764V0.324463H52.3008V23.6756H56.2764V16.2651L57.5541 13.7271H57.6189L61.6919 23.6756H66.0956L60.2521 10.6611L65.7 0.324463H61.199Z" fill="black"/>
<path d="M70.1426 0.324463V23.6756H81.1161V20.0372H74.2155V13.2436H79.3067V9.955H74.2155V4.02656H80.8178V0.324463H70.1426Z" fill="black"/>
<path d="M91.1493 14.1087H89.5085V23.6756H85.4355V0.324463H91.6747C95.8124 0.324463 97.6219 2.70983 97.6219 6.99078C97.6219 10.343 96.6361 12.3086 94.7294 13.11L98.6077 23.6756H94.3078L91.1493 14.1087ZM89.5085 10.8519H91.4477C93.0885 10.8519 93.5814 9.88502 93.5814 7.30883C93.5814 4.56724 92.9912 3.89298 91.4477 3.89298H89.5085V10.8519Z" fill="black"/>
<path d="M113.505 5.18422L110.547 6.27831C110.087 4.24915 109.198 3.44131 107.888 3.44131C106.442 3.44131 105.755 4.28096 105.755 5.82668C105.755 10.044 113.667 10.4956 113.667 17.4546C113.667 21.6465 111.371 23.9937 107.694 23.9937C104.672 23.9937 102.11 21.9963 101.52 18.3896L104.743 17.4228C105.203 19.7445 106.351 20.5842 107.596 20.5842C109.108 20.5842 109.795 19.7763 109.795 18.0652C109.795 13.1354 101.714 12.9764 101.714 6.11292C101.714 2.66527 103.848 -0.00634766 107.46 -0.00634766C110.807 1.333e-05 112.681 2.02917 113.505 5.18422Z" fill="black"/>
<path d="M122.993 0.330755C122.98 0.311672 122.961 0.29895 122.935 0.29895H115.049C115.023 0.29895 115.003 0.311672 114.99 0.330755C114.977 0.349838 114.977 0.375282 114.99 0.394365L118.94 7.09884C118.953 7.11793 118.972 7.13065 118.998 7.13065C119.024 7.13065 119.044 7.11793 119.057 7.09884L123 0.394365C123.006 0.381643 123.006 0.349838 122.993 0.330755Z" fill="black"/>
</g>
<defs>
<clipPath id="clip0">
<rect width="124" height="24" fill="white"/>
</clipPath>
</defs>
</svg>
