<svg width="167" height="28" viewBox="0 0 167 28" fill="none" xmlns="http://www.w3.org/2000/svg">
<path d="M47.7242 22.2047V2H43.6591V25.6416H46.2468H47.7242H58.7321V22.2047H47.7242Z" fill="#808284"/>
<path d="M123.874 9.09131C119.152 9.09131 115.322 12.8774 115.322 17.5432C115.322 22.2089 119.152 25.995 123.874 25.995C128.596 25.995 132.426 22.2089 132.426 17.5432C132.426 12.8774 128.596 9.09131 123.874 9.09131ZM123.874 22.7077C121.25 22.7077 119.12 20.3952 119.12 17.5432C119.12 14.6911 121.245 12.3786 123.874 12.3786C126.502 12.3786 128.628 14.6911 128.628 17.5432C128.628 20.3952 126.502 22.7077 123.874 22.7077Z" fill="#808284"/>
<path d="M158.257 16.8452L165.336 9.49966H160.687L153.825 16.7046V2H150.077V25.6416H153.825V21.1346L155.751 19.3254L161.19 25.6416H166.234L158.257 16.8452Z" fill="#808284"/>
<path d="M147.58 20.9079C146.243 21.9826 144.412 22.6627 142.785 22.6627C139.794 22.6627 137.37 20.3638 137.37 17.5299C137.37 14.696 139.794 12.3971 142.785 12.3971C144.412 12.3971 146.243 13.0773 147.58 14.1519V10.5744C146.148 9.6403 144.417 9.09619 142.55 9.09619C137.637 9.09619 133.649 12.8732 133.649 17.5299C133.649 22.1866 137.633 25.9636 142.55 25.9636C144.417 25.9636 146.148 25.415 147.58 24.4855V20.9079Z" fill="#808284"/>
<path d="M72.8039 9.44986V10.996C71.4171 9.80807 69.6452 9.09619 67.7146 9.09619C63.2643 9.09619 59.6569 12.8823 59.6569 17.548C59.6569 22.2138 63.2643 25.9999 67.7146 25.9999C69.6452 25.9999 71.4171 25.288 72.8039 24.1001V25.6462H76.5518V9.44986H72.8039ZM68.5756 22.8259C65.7931 22.8259 63.5407 20.459 63.5407 17.5435C63.5407 14.628 65.7931 12.2611 68.5756 12.2611C70.3521 12.2611 71.9111 13.2269 72.8039 14.6824V20.4001C71.9066 21.8556 70.3476 22.8214 68.5756 22.8214V22.8259Z" fill="#808284"/>
<path d="M88.8557 9.09131C86.8708 9.09131 84.9719 9.96642 83.7347 11.3176V9.44951H79.9868V25.6413H83.7347V14.3873C84.777 13.2266 86.259 12.4603 87.5868 12.4603C90.8135 12.4603 91.1942 14.6095 91.2259 17.1759V25.6413H94.9738V14.741C94.9738 11.6214 92.232 9.09584 88.8512 9.09584L88.8557 9.09131Z" fill="#808284"/>
<path d="M107.092 9.09131C105.107 9.09131 103.208 9.96642 101.971 11.3176V9.44951H98.2234V25.6413H101.971V14.3873C103.014 13.2266 104.496 12.4603 105.823 12.4603C109.05 12.4603 109.431 14.6095 109.462 17.1759V25.6413H113.21V14.741C113.21 11.6214 110.469 9.09584 107.088 9.09584L107.092 9.09131Z" fill="#808284"/>
<path d="M28.6409 0H15.5162V20.2162H28.6409V0Z" fill="#C3000B"/>
<path d="M13.4413 24.9645H10.6096V0H0.854248V27.8012H28.6409V24.9645H15.5163H13.4413Z" fill="#C3000B"/>
</svg>
