<svg xmlns="http://www.w3.org/2000/svg" width="190" height="60" fill="none" viewBox="0 0 190 60"><path fill="#fff" d="M189.926 0H0v60h189.926V0Z"/><path fill="#00368F" d="M173 21.478h-6.432v17.426H173V21.478Zm-16.866 17.426-6.686-6.38v6.38h-6.436V21.478h6.436v6.19l7.188-6.19h8.427l-9.899 8.49 9.6 8.936h-8.63Zm-25.323.67c-8.851 0-9.913-3.707-9.942-6.497a723.426 723.426 0 0 1-.033-5.28v-6.322h6.159v10.07c0 2.56 1.177 3.702 3.816 3.702s3.819-1.14 3.819-3.702v-10.07h6.159v6.322c0 .852-.019 3.714-.034 5.28-.028 2.79-1.091 6.497-9.942 6.497h-.002Zm-32.333-.67v-3.606l10.183-9.544h-9.846v-4.276h19.872v3.61l-10.325 9.523h10.292v4.293H98.478Zm-11.792.67c-8.85 0-9.913-3.707-9.942-6.497a737.9 737.9 0 0 1-.033-5.28v-6.322h6.159v10.07c0 2.56 1.177 3.702 3.816 3.702 2.64 0 3.817-1.14 3.817-3.702v-10.07h6.159v6.322c0 .877-.02 3.738-.034 5.28-.028 2.79-1.088 6.497-9.942 6.497Zm-21.819-.247c-9.21 0-10.823-2.831-11.129-5.921h7.791c.706 2.062 2.788 2.062 3.477 2.062.832 0 2.751-.144 2.751-1.486 0-1.174-1.306-1.301-3.282-1.491-.259-.024-.53-.05-.814-.082-6.336-.667-9.552-1.73-9.552-5.697 0-1.729.945-5.75 9.703-5.75h.079c6.697.019 10.564 2.117 10.633 5.762h-7.159c-.483-1.729-2.393-1.988-3.498-1.988-.428 0-1.871.053-2.498.725-.216.23-.314.514-.292.836.057.948 1.854 1.152 4.127 1.411.467.053.955.108 1.453.173 5.694.73 8.46 2.598 8.46 5.705 0 1.34-.73 5.71-10.114 5.736h-.136v.005Z"/><path fill="#DE0039" d="m28.691 21.675 6.367 4.293c1.319.888 2.67 1.757 4.996 1.757 3.623 0 6.848-2.643 6.848-2.643L31.95 15s-1.632 1.8-6.752 5.004C19.818 23.364 17 24.342 17 24.342l19.3 13.023-1.268.833-6.193-4.175c-1.313-.886-2.668-1.758-4.996-1.758-3.622.003-6.843 2.653-6.843 2.653l14.955 10.084s1.632-1.8 6.752-5.003c5.377-3.361 8.198-4.339 8.198-4.339L27.423 22.51l1.268-.835Z"/></svg>