<svg width="226" height="74" viewBox="0 0 226 74" fill="none" xmlns="http://www.w3.org/2000/svg">
<path d="M33.01 8.95922C33.01 8.95922 33.01 13.0892 31.32 18.1692C30.11 21.8192 26.73 30.0092 26.73 30.0092H19.74L16.51 17.3592L13.27 30.0092H6.28C6.28 30.0092 2.9 21.8092 1.69 18.1692C0 13.0792 0 8.95922 0 8.95922H6.07C6.07 8.95922 6.02 13.0892 7.65 17.8992C8.58 20.6092 9.98 24.6192 9.98 24.6192L13.85 8.94922H19.15L23.02 24.6192C23.02 24.6192 24.43 20.6092 25.35 17.8992C26.99 13.0792 26.93 8.95922 26.93 8.95922H33H33.01Z" fill="#3849E0"/>
<path d="M55.0002 23.1893C53.7402 27.7393 49.8202 30.6393 44.3402 30.6393C37.5602 30.6393 33.2202 26.1793 33.2202 19.4793C33.2202 12.7793 37.6402 8.31934 44.3402 8.31934C52.0102 8.31934 56.2602 14.0493 54.0302 20.8693H39.2502C39.6702 23.8993 41.4002 25.7093 44.4302 25.7093C46.5402 25.7093 48.0902 24.8293 48.7702 23.1793H55.0002V23.1893ZM39.3302 17.2893H48.5102C48.7602 14.7593 47.2902 13.0793 44.3002 13.0793C41.6002 13.0793 39.8802 14.5493 39.3302 17.2893Z" fill="#3849E0"/>
<path d="M56.3101 22.7293H61.8301C61.7001 24.8393 63.3501 26.1393 66.1301 26.1393C68.3601 26.1393 69.9201 25.2993 69.9201 24.0293C69.9201 20.4493 56.5701 23.2693 56.5701 15.2693C56.5701 10.9293 60.5301 8.31934 65.8801 8.31934C71.6501 8.31934 75.9501 11.3093 75.1001 16.2793H69.5401C70.0501 14.2193 68.4501 12.8293 65.8801 12.8293C63.7301 12.8293 62.4701 13.7993 62.4701 14.9793C62.4701 18.6893 75.8201 15.6493 75.8201 23.6993C75.8201 28.0793 71.8201 30.6493 66.1301 30.6493C60.0201 30.6493 56.1501 27.6193 56.3201 22.7293H56.3101Z" fill="#3849E0"/>
<path d="M78.21 30.0093V0.529297H83.9V30.0093H78.21Z" fill="#3849E0"/>
<path d="M108.15 23.1893C106.89 27.7393 102.97 30.6393 97.4901 30.6393C90.7101 30.6393 86.3701 26.1793 86.3701 19.4793C86.3701 12.7793 90.7901 8.31934 97.4901 8.31934C105.16 8.31934 109.41 14.0493 107.18 20.8693H92.4001C92.8201 23.8993 94.5501 25.7093 97.5801 25.7093C99.6901 25.7093 101.24 24.8293 101.92 23.1793H108.15V23.1893ZM92.4801 17.2893H101.66C101.91 14.7593 100.44 13.0793 97.4501 13.0793C94.7501 13.0793 93.0301 14.5493 92.4801 17.2893Z" fill="#3849E0"/>
<path d="M123.69 8.95898H129.67L122.01 31.579C121.13 34.149 119.1 39.029 112.96 39.029C111.87 39.029 110.6 38.859 109.42 38.399V33.559C110.51 33.939 111.48 34.149 112.33 34.149C114.73 34.149 115.91 32.629 116.58 31.159L108.03 8.95898H114.09L119.1 24.249L123.69 8.95898Z" fill="#3849E0"/>
<path d="M33.6499 51.089V64.149H27.9199V51.349C27.9199 48.989 26.9099 47.389 24.9699 47.389C22.3999 47.389 20.5899 49.869 20.5899 53.709V64.149H14.8599V51.349C14.8599 48.869 13.8099 47.219 11.8299 47.219C9.29994 47.219 7.36994 49.749 7.36994 53.789V64.149H1.68994V43.089H7.37994V46.839C8.46994 44.229 10.9599 42.459 14.0799 42.459C17.1999 42.459 19.4299 44.229 20.2699 46.879C21.4099 44.179 23.8099 42.459 27.0099 42.459C31.3899 42.459 33.6599 45.659 33.6599 51.089H33.6499Z" fill="#3849E0"/>
<path d="M36.2202 36.9793C36.2202 35.0393 37.6902 33.5693 39.6302 33.5693C41.5702 33.5693 43.0402 35.0393 43.0402 36.9793C43.0402 38.9193 41.5702 40.3893 39.6302 40.3893C37.6902 40.3893 36.2202 38.9193 36.2202 36.9793ZM36.7302 64.1493V43.0893H42.4602V64.1493H36.7302Z" fill="#3849E0"/>
<path d="M44.8901 56.8592H50.4101C50.2801 58.9692 51.9301 60.2692 54.7101 60.2692C56.9401 60.2692 58.5001 59.4292 58.5001 58.1592C58.5001 54.5792 45.1501 57.3992 45.1501 49.3992C45.1501 45.0592 49.1101 42.4492 54.4601 42.4492C60.2301 42.4492 64.5301 45.4392 63.6801 50.4092H58.1201C58.6301 48.3492 57.0301 46.9592 54.4601 46.9592C52.3101 46.9592 51.0501 47.9292 51.0501 49.1092C51.0501 52.8192 64.4001 49.7792 64.4001 57.8292C64.4001 62.2092 60.4001 64.7792 54.7101 64.7792C48.6001 64.7792 44.7301 61.7492 44.9001 56.8592H44.8901Z" fill="#3849E0"/>
<path d="M65.6099 56.8592H71.1299C70.9999 58.9692 72.6499 60.2692 75.4299 60.2692C77.6599 60.2692 79.2199 59.4292 79.2199 58.1592C79.2199 54.5792 65.8699 57.3992 65.8699 49.3992C65.8699 45.0592 69.8299 42.4492 75.1799 42.4492C80.9499 42.4492 85.2499 45.4392 84.3999 50.4092H78.8399C79.3499 48.3492 77.7499 46.9592 75.1799 46.9592C73.0299 46.9592 71.7699 47.9292 71.7699 49.1092C71.7699 52.8192 85.1199 49.7792 85.1199 57.8292C85.1199 62.2092 81.1199 64.7792 75.4299 64.7792C69.3199 64.7792 65.4499 61.7492 65.6199 56.8592H65.6099Z" fill="#3849E0"/>
<path d="M86.9702 36.9793C86.9702 35.0393 88.4402 33.5693 90.3802 33.5693C92.3202 33.5693 93.7902 35.0393 93.7902 36.9793C93.7902 38.9193 92.3202 40.3893 90.3802 40.3893C88.4402 40.3893 86.9702 38.9193 86.9702 36.9793ZM87.4802 64.1493V43.0893H93.2102V64.1493H87.4802Z" fill="#3849E0"/>
<path d="M95.6802 53.619C95.6802 46.919 100.1 42.459 106.76 42.459C113.42 42.459 117.84 46.919 117.84 53.619C117.84 60.319 113.42 64.779 106.76 64.779C100.1 64.779 95.6802 60.319 95.6802 53.619ZM111.89 53.619C111.89 49.829 109.83 47.389 106.75 47.389C103.67 47.389 101.61 49.829 101.61 53.619C101.61 57.409 103.67 59.849 106.75 59.849C109.83 59.849 111.89 57.369 111.89 53.619Z" fill="#3849E0"/>
<path d="M139.53 52.1392V64.1392H133.8V52.1792C133.8 50.1992 133.8 47.2092 130.52 47.2092C127.78 47.2092 125.8 49.8592 125.8 53.7792V64.1392H120.11V43.0792H125.8V46.8292C127.02 44.0892 129.51 42.4492 132.71 42.4492C139.53 42.4492 139.53 49.2292 139.53 52.1392Z" fill="#3849E0"/>
<path d="M217.71 31.5889C217.48 31.6089 217.25 31.6289 217.02 31.6489C216.05 31.7189 215.01 31.7789 213.97 31.8089L213.69 30.5789H213.71C213.14 24.7789 211.95 10.0989 197.24 3.71887C186.47 -0.941132 177.65 0.0488679 165.14 0.168868C165.14 0.608868 170.24 12.4289 179.4 20.2389C185.61 25.5289 194.38 29.1889 196.02 30.2889C197.07 30.9889 187.36 33.5289 174.24 26.6089C166.08 22.3089 159.4 14.2989 159.4 14.2989C159.4 14.2989 150.35 28.0089 163.06 36.8289C150.55 42.6189 157.67 59.9389 157.67 59.9389C157.67 59.9389 169.99 46.6489 187.58 42.3989C190.64 41.6589 196.46 42.0389 195.23 42.6989C178.04 51.8989 165.2 72.0789 165.18 73.1989C178.9 73.1989 190.68 73.9389 198.01 69.9789C212.11 62.3589 213.15 48.8089 213.72 43.0189H213.7L213.78 42.6589C216.1 42.6189 219.23 42.5789 222.46 39.0489C223.76 37.6289 225.3 39.8289 225.3 39.8289C225.3 39.8289 228.37 30.6689 217.72 31.5989L217.71 31.5889Z" fill="#3849E0"/>
</svg>
