<svg width="510" height="140" viewBox="0 0 510 140" fill="none" xmlns="http://www.w3.org/2000/svg">
<path d="M41 138.75V1.25H78.2656C88.2656 1.25 95.5312 3.69792 100.062 8.59375C104.646 13.4375 106.938 21.4583 106.938 32.6562V38.6719C106.938 45.1302 105.766 50.3646 103.422 54.375C101.13 58.3854 97.6146 61.0156 92.875 62.2656C99.0729 63.8281 103.214 67.5 105.297 73.2812C107.432 79.0104 108.5 86.0156 108.5 94.2969C108.5 103.203 107.667 110.99 106 117.656C104.333 124.323 101.312 129.505 96.9375 133.203C92.5625 136.901 86.3385 138.75 78.2656 138.75H41ZM67.875 53.0469H73.5C76.0521 53.0469 77.6927 52.0573 78.4219 50.0781C79.151 48.099 79.5156 45.7292 79.5156 42.9688V29.1406C79.5156 24.7135 77.5625 22.5 73.6562 22.5H67.875V53.0469ZM70.6094 114.531C77.7448 114.531 81.3125 111.146 81.3125 104.375V87.1875C81.3125 83.2812 80.7135 80.2083 79.5156 77.9688C78.3698 75.6771 76.1823 74.5312 72.9531 74.5312H67.875V114.375C69.0208 114.479 69.9323 114.531 70.6094 114.531Z" fill="white"/>
<path d="M117.562 138.75V1.25H172.562V27.8125H145.531V54.6094H171.469V80.4688H145.531V111.953H174.359V138.75H117.562Z" fill="white"/>
<path d="M183.5 138.75V1.25H211.781L224.438 67.1094V1.25H251V138.75H224.125L210.375 70V138.75H183.5Z" fill="white"/>
<path d="M274.984 138.75V27.6562H258.656V1.25H318.812V27.6562H302.484V138.75H274.984Z" fill="white"/>
<path d="M359.281 140C348.292 140 339.88 136.693 334.047 130.078C328.266 123.411 325.375 113.802 325.375 101.25V35.9375C325.375 24.1667 328.24 15.2344 333.969 9.14062C339.75 3.04688 348.188 0 359.281 0C370.375 0 378.786 3.04688 384.516 9.14062C390.297 15.2344 393.188 24.1667 393.188 35.9375V101.25C393.188 113.802 390.271 123.411 384.438 130.078C378.656 136.693 370.271 140 359.281 140ZM359.516 114.688C363.682 114.688 365.766 110.651 365.766 102.578V35.4688C365.766 28.6979 363.734 25.3125 359.672 25.3125C355.089 25.3125 352.797 28.776 352.797 35.7031V102.734C352.797 107.005 353.318 110.078 354.359 111.953C355.401 113.776 357.12 114.688 359.516 114.688Z" fill="white"/>
<path d="M434.75 140C428.552 140 422.901 138.802 417.797 136.406C412.693 134.01 408.63 130.469 405.609 125.781C402.641 121.042 401.156 115.234 401.156 108.359V73.9062H428.344V106.719C428.344 109.115 428.812 111.042 429.75 112.5C430.74 113.958 432.302 114.688 434.438 114.688C438.552 114.688 440.609 112.161 440.609 107.109V1.25H468.344V104.375C468.344 111.667 466.911 117.995 464.047 123.359C461.182 128.672 457.224 132.786 452.172 135.703C447.12 138.568 441.312 140 434.75 140Z" fill="white"/>
<rect y="0.75" width="30" height="69" rx="3" fill="#D9D9D9"/>
<rect x="480" y="0.75" width="30" height="138" rx="3" fill="#D9D9D9"/>
</svg>
