<svg width="511" height="141" viewBox="0 0 511 141" fill="none" xmlns="http://www.w3.org/2000/svg">
<path d="M42 139V1.5H79.2656C89.2656 1.5 96.5312 3.94792 101.062 8.84375C105.646 13.6875 107.938 21.7083 107.938 32.9062V38.9219C107.938 45.3802 106.766 50.6146 104.422 54.625C102.13 58.6354 98.6146 61.2656 93.875 62.5156C100.073 64.0781 104.214 67.75 106.297 73.5312C108.432 79.2604 109.5 86.2656 109.5 94.5469C109.5 103.453 108.667 111.24 107 117.906C105.333 124.573 102.312 129.755 97.9375 133.453C93.5625 137.151 87.3385 139 79.2656 139H42ZM68.875 53.2969H74.5C77.0521 53.2969 78.6927 52.3073 79.4219 50.3281C80.151 48.349 80.5156 45.9792 80.5156 43.2188V29.3906C80.5156 24.9635 78.5625 22.75 74.6562 22.75H68.875V53.2969ZM71.6094 114.781C78.7448 114.781 82.3125 111.396 82.3125 104.625V87.4375C82.3125 83.5312 81.7135 80.4583 80.5156 78.2188C79.3698 75.9271 77.1823 74.7812 73.9531 74.7812H68.875V114.625C70.0208 114.729 70.9323 114.781 71.6094 114.781Z" fill="white"/>
<path d="M118.562 139V1.5H173.562V28.0625H146.531V54.8594H172.469V80.7188H146.531V112.203H175.359V139H118.562Z" fill="white"/>
<path d="M184.5 139V1.5H212.781L225.438 67.3594V1.5H252V139H225.125L211.375 70.25V139H184.5Z" fill="white"/>
<path d="M275.984 139V27.9062H259.656V1.5H319.812V27.9062H303.484V139H275.984Z" fill="white"/>
<path d="M360.281 140.25C349.292 140.25 340.88 136.943 335.047 130.328C329.266 123.661 326.375 114.052 326.375 101.5V36.1875C326.375 24.4167 329.24 15.4844 334.969 9.39062C340.75 3.29688 349.188 0.25 360.281 0.25C371.375 0.25 379.786 3.29688 385.516 9.39062C391.297 15.4844 394.188 24.4167 394.188 36.1875V101.5C394.188 114.052 391.271 123.661 385.438 130.328C379.656 136.943 371.271 140.25 360.281 140.25ZM360.516 114.938C364.682 114.938 366.766 110.901 366.766 102.828V35.7188C366.766 28.9479 364.734 25.5625 360.672 25.5625C356.089 25.5625 353.797 29.026 353.797 35.9531V102.984C353.797 107.255 354.318 110.328 355.359 112.203C356.401 114.026 358.12 114.938 360.516 114.938Z" fill="white"/>
<path d="M435.75 140.25C429.552 140.25 423.901 139.052 418.797 136.656C413.693 134.26 409.63 130.719 406.609 126.031C403.641 121.292 402.156 115.484 402.156 108.609V74.1562H429.344V106.969C429.344 109.365 429.812 111.292 430.75 112.75C431.74 114.208 433.302 114.938 435.438 114.938C439.552 114.938 441.609 112.411 441.609 107.359V1.5H469.344V104.625C469.344 111.917 467.911 118.245 465.047 123.609C462.182 128.922 458.224 133.036 453.172 135.953C448.12 138.818 442.312 140.25 435.75 140.25Z" fill="white"/>
<rect y="80" width="30" height="60" rx="3" fill="#F84F22"/>
<rect x="481" width="30" height="139" rx="3" fill="#F84F22"/>
</svg>
