<svg width="1197" height="175" viewBox="0 0 1197 175" fill="none" xmlns="http://www.w3.org/2000/svg">
<path opacity="0.9" d="M980.672 0C1027.8 0 1048.52 21.1738 1048.52 66.9365V125.222C1048.52 131.414 1050.2 133.489 1054.93 133.823L1084.12 88.9043C1085.4 86.9276 1085.41 84.382 1084.13 82.3975L1040.92 14.9814C1038.36 10.988 1041.23 5.74326 1045.97 5.74316H1086.23C1088.34 5.74316 1090.3 6.85708 1091.38 8.6748L1112.24 43.7168C1114.57 47.6337 1120.25 47.6236 1122.56 43.6982L1143.22 8.69336C1144.3 6.86522 1146.27 5.74332 1148.39 5.74316H1186.54C1191.25 5.74316 1194.12 10.9113 1191.64 14.9082L1149.02 83.5635C1147.8 85.5369 1147.82 88.0397 1149.08 89.9893L1195.43 161.547C1198.02 165.539 1195.15 170.808 1190.39 170.809H1149.7C1147.61 170.809 1145.67 169.72 1144.58 167.936L1120.11 127.863C1117.75 124.004 1112.13 124.04 1109.83 127.931L1086.15 167.868C1085.07 169.691 1083.1 170.809 1080.99 170.809H1074.41C1066.63 171.888 1049.52 171.213 1044.19 171.213C1020.97 171.213 1010.04 163.699 1010.04 147.534V146.998C1010.04 146.666 1009.77 146.396 1009.44 146.396C1009.25 146.396 1009.06 146.489 1008.95 146.646C997.781 161.985 979.864 171.895 956.767 171.896C941.716 171.896 928.417 168.251 918.399 161.309C916.959 163.621 914.727 165.406 911.976 166.205C897.732 170.34 884.681 172.273 871.47 172.273C830.943 172.273 809.77 154.059 809.77 111.711V15.793C809.77 9.16555 815.142 3.79297 821.77 3.79297H844.442C851.07 3.79297 856.442 9.16555 856.442 15.793V106.93C856.442 127.193 863.501 132.885 881.032 132.885C887.101 132.885 893.392 132.218 899.74 131.023C899.36 128.443 899.164 125.75 899.164 122.945C899.164 92.6644 918.061 74.9057 965.646 71.0352L993.678 68.7852C998.676 68.384 1002.53 64.2101 1002.53 59.1953C1002.53 44.6243 994.105 36.4277 979.078 36.4277C969.306 36.4278 962.071 39.8098 957.947 45.6367C954.483 50.5318 949.793 55.3252 943.796 55.3252H919.721C912.783 55.3252 907.15 49.3855 909.021 42.7051C916.572 15.7431 942.567 8.32846e-05 980.672 0ZM1002.53 104.048C1002.53 100.748 999.694 98.1627 996.408 98.4658L972.932 100.633C954.262 102.454 946.977 107.691 946.977 119.53C946.977 130.686 954.945 135.923 967.467 135.923C988.185 135.923 1002.53 122.945 1002.53 104.048Z" fill="white" fill-opacity="0.9"/>
<path d="M660.928 168.858C654.301 168.858 648.928 163.485 648.928 156.858V15.7928C648.928 9.16538 654.301 3.79279 660.928 3.79279H716.776C769.141 3.79279 800.105 32.9353 800.105 86.2115C800.105 139.26 769.141 168.858 716.776 168.858H660.928ZM715.182 131.974C736.356 131.974 752.749 116.492 752.749 86.2115C752.749 55.9306 736.356 40.6763 715.182 40.6763H707.602C700.974 40.6763 695.602 46.0489 695.602 52.6763V119.974C695.602 126.602 700.974 131.974 707.602 131.974H715.182Z" fill="white"/>
<path d="M483.641 15.793C483.641 9.1656 489.013 3.79301 495.641 3.79301H516.767C522.992 3.79301 528.037 8.83874 528.037 15.063V25.7295C528.037 26.0628 528.308 26.3329 528.641 26.3329C528.834 26.3329 529.016 26.239 529.13 26.0833C541.859 8.7219 558.653 0.377869 581.086 0.377869C616.148 0.377869 634.362 20.8687 634.362 62.3058V156.858C634.362 163.486 628.99 168.858 622.362 168.858H599.689C593.061 168.858 587.689 163.486 587.689 156.858V69.5914C587.689 47.9622 579.948 39.0828 563.555 39.0828C543.292 39.0828 530.314 52.288 530.314 73.2342V156.858C530.314 163.486 524.942 168.858 518.314 168.858H495.641C489.013 168.858 483.641 163.486 483.641 156.858V15.793Z" fill="white"/>
<path d="M469 156.858C469 163.485 463.628 168.858 457 168.858H435.646C429.547 168.858 424.604 163.914 424.604 157.816V147.38C424.604 147.045 424.332 146.773 423.996 146.773C423.805 146.773 423.624 146.865 423.509 147.017C410.559 164.154 393.997 172.273 373.376 172.273C339.68 172.273 321.466 151.782 321.466 110.573V15.7928C321.466 9.16537 326.839 3.79279 333.466 3.79279H356.14C362.767 3.79279 368.14 9.16537 368.14 15.7928V103.287C368.14 124.916 376.109 133.568 391.135 133.568C409.577 133.568 422.327 120.591 422.327 98.0507V15.7928C422.327 9.16538 427.699 3.79279 434.327 3.79279H457C463.628 3.79279 469 9.16537 469 15.7928V156.858Z" fill="white"/>
<path d="M73.7671 174.013C33.7173 174.013 7.5815 157.105 1.40098 129.176C-0.0458836 122.637 5.48136 117.068 12.1778 117.036L37.1004 116.918C43.2027 116.889 47.9479 121.733 50.9975 127.019C55.0949 134.12 62.8154 138.041 73.9947 138.041C86.9723 138.041 96.0793 133.259 96.0793 123.242C96.0793 115.728 91.0704 110.947 80.3697 108.443L40.754 99.3356C15.482 93.6437 1.82141 77.4787 1.82141 53.5727C1.82141 21.2427 27.0935 2.11792 71.2626 2.11792C106.831 2.11792 130.357 16.7047 136.571 40.7543C138.254 47.2706 132.664 52.8897 125.934 52.8897H100.759C94.8029 52.8897 90.2618 48.0056 86.4238 43.4507C83.0205 39.4118 77.3735 36.9524 68.7582 36.9524C56.4637 36.9524 48.495 41.2782 48.495 49.9299C48.495 56.7602 53.2762 60.6307 64.2047 63.1351L103.82 72.2421C129.775 78.1617 143.436 95.2374 143.436 119.599C143.436 155.344 114.521 174.013 73.7671 174.013Z" fill="white"/>
<path d="M227.27 68.1045C231.907 67.8957 231.294 71.3957 231.312 74.7445C231.326 77.2129 231.771 80.3805 228.625 81.0928C223.358 81.7933 224.967 75.1873 224.69 72.0549C224.528 70.2195 225.372 68.5946 227.27 68.1045Z" fill="white"/>
<path fill-rule="evenodd" clip-rule="evenodd" d="M229.652 6.35449C252.407 6.35449 271.443 14.6468 284.715 29.1458C297.887 43.5366 304.678 63.2566 304.678 85.0412C304.677 106.823 297.888 126.579 284.727 141.01C271.464 155.554 252.428 163.908 229.652 163.908C206.877 163.908 187.841 155.554 174.578 141.01C161.417 126.579 154.627 106.823 154.627 85.0412C154.627 63.2566 161.417 43.5366 174.59 29.1458C187.861 14.6468 206.897 6.35449 229.652 6.35449ZM237.981 47.0496C236.9 47.4351 233.985 47.6671 232.717 47.8569C214.567 50.5768 198.012 60.5133 189.763 77.3222C182.629 91.4175 182.938 106.442 180.863 121.794C180.473 124.813 179.971 127.814 179.361 130.792C190.206 144.616 206.775 153.175 227.777 153.655L229.652 153.677C238.29 153.677 246.202 152.327 253.302 149.822C252.94 142.148 251.428 134.193 248.075 127.335C247.069 125.277 244.676 121.109 242.744 119.87C241.624 119.323 240.271 119.052 239.103 118.635C234.191 116.882 233.25 116.842 233.563 111.419C233.889 105.62 235.006 99.8923 236.881 94.3947C241.313 81.5697 249.871 71.5047 262.392 66.1423C264.16 65.385 266.097 64.7181 267.813 63.8824C266.142 55.7526 259.008 49.8512 251.227 48.0347C249.733 47.6861 247.482 47.5275 246.203 47.0816L246.114 47.0496H237.981ZM272.101 69.801C269.135 70.8808 265.778 72.0985 262.964 73.5056C255.061 77.4672 248.781 83.9543 245.163 91.889C245.093 92.0381 245.023 92.1882 244.956 92.3386C246.074 92.3048 247.218 92.5947 248.294 92.8841C252.817 94.1454 256.96 96.4644 260.364 99.6399C266.529 105.293 270.825 113.088 273.478 120.893C274.168 122.924 274.74 125.304 277.495 125.195C278.401 125.163 279.254 124.767 279.851 124.1C281.237 122.571 283.399 114.707 283.798 112.332C284.047 110.843 284.31 108.266 284.707 106.881V99.1064L284.677 99.0025C284.456 98.247 284.33 97.1687 284.231 96.3649C283.136 87.4289 278.567 76.3487 272.101 69.801ZM243.29 98.489C242.653 100.645 240.377 110.568 241.134 112.137C242.278 113.105 246.189 113.42 247.295 114.245C249.336 115.769 251.591 119.067 252.895 121.24C255.131 121.263 259.719 120.752 261.817 120.023C263.184 119.662 264.524 119.203 265.826 118.651C262.121 110.737 257.255 102.825 248.605 99.6779C246.887 99.0689 245.102 98.6701 243.29 98.489Z" fill="white"/>
</svg>
